<svg width="123" height="122" viewBox="0 0 123 122" fill="none" xmlns="http://www.w3.org/2000/svg">
<path fill-rule="evenodd" clip-rule="evenodd" d="M62.89 56.03C64 55.68 65.23 55.78 66.61 56.4L77.01 64.27C79.27 65.98 81.25 68.05 79.74 71.17C79.23 72.23 78.34 73.27 77.36 74.66L76.83 75.41C74.86 78.21 74.22 77.41 71.12 77.24C71.68 90.61 72.87 105.06 68.48 118.12C67.61 120.82 65.16 121.56 61.53 120.83L55.43 118.8C59.54 112.66 61.59 104.95 61.87 95.91C58.41 104.49 55.07 112.87 51.19 116.77L44.91 114.69C45.52 111.64 45.96 109.26 45.26 107.79L41.19 112.03L31.86 106.26C38.22 102.9 43.48 98.39 47.46 92.53C40.77 97.54 34.7 100.63 29.32 101.52C26.57 102.35 24.83 101.87 24.16 99.99C23.68 98.65 24.11 98.22 24.97 97.13C26.08 95.72 27.58 94.46 29.32 93.34C26.19 94.44 24.68 94.29 22.95 94.85C18.05 96.44 13.01 92.99 14.69 87.95C15.76 84.72 18.23 84.86 21.36 83.88L26.78 82.19C21.59 82.47 16.46 82.64 11.76 81.94C6.36 81.14 6.45 80.95 3.52 76.56C-0.419996 70.65 -2.73 65.11 6.04 67.4C22.77 70.58 39.6 72.74 57.29 66.42C56.53 65.1 56.39 63.85 56.79 62.69C57.37 60.94 61.13 56.58 62.89 56.03ZM113.8 2.41999L74.45 51.53C69.74 58.21 77.65 63.44 82.84 57.17L122.04 7.89999C125.12 1.85999 119.13 -3.16001 113.8 2.41999Z" fill="#364954"/>
</svg>
