<svg width="123" height="116" viewBox="0 0 123 116" fill="none" xmlns="http://www.w3.org/2000/svg">
<path d="M110.15 34C111.741 34 113.267 34.6321 114.393 35.7574C115.518 36.8826 116.15 38.4087 116.15 40C116.15 41.5913 115.518 43.1174 114.393 44.2426C113.267 45.3679 111.741 46 110.15 46H83C81.4087 46 79.8826 45.3679 78.7574 44.2426C77.6321 43.1174 77 41.5913 77 40V12.33C77 10.7387 77.6321 9.21258 78.7574 8.08737C79.8826 6.96215 81.4087 6.33001 83 6.33001C84.5913 6.33001 86.1174 6.96215 87.2426 8.08737C88.3679 9.21258 89 10.7387 89 12.33V25.54L112.7 1.76001C113.848 0.810344 115.309 0.322062 116.798 0.390226C118.287 0.458391 119.697 1.07812 120.754 2.12876C121.81 3.17941 122.439 4.58576 122.515 6.07402C122.592 7.56228 122.113 9.02593 121.17 10.18L97.38 34H110.15ZM34 15.82C34 14.2287 34.6321 12.7026 35.7574 11.5774C36.8826 10.4521 38.4087 9.82001 40 9.82001C41.5913 9.82001 43.1174 10.4521 44.2426 11.5774C45.3679 12.7026 46 14.2287 46 15.82V43C46 44.5913 45.3679 46.1174 44.2426 47.2426C43.1174 48.3679 41.5913 49 40 49H12.33C10.7387 49 9.21258 48.3679 8.08736 47.2426C6.96214 46.1174 6.33 44.5913 6.33 43C6.33 41.4087 6.96214 39.8826 8.08736 38.7574C9.21258 37.6321 10.7387 37 12.33 37H25.54L1.76 13.3C0.810339 12.1515 0.322057 10.6908 0.390221 9.20206C0.458386 7.71337 1.07812 6.30332 2.12876 5.24644C3.1794 4.18956 4.58576 3.56149 6.07402 3.48451C7.56228 3.40754 9.02593 3.88716 10.18 4.83001L34 28.59V15.82ZM12.84 81.5C11.2487 81.5 9.72258 80.8679 8.59736 79.7426C7.47214 78.6174 6.84 77.0913 6.84 75.5C6.84 73.9087 7.47214 72.3826 8.59736 71.2574C9.72258 70.1322 11.2487 69.5 12.84 69.5H40C41.5913 69.5 43.1174 70.1322 44.2426 71.2574C45.3679 72.3826 46 73.9087 46 75.5V103.18C46 104.771 45.3679 106.297 44.2426 107.423C43.1174 108.548 41.5913 109.18 40 109.18C38.4087 109.18 36.8826 108.548 35.7574 107.423C34.6321 106.297 34 104.771 34 103.18V90L10.31 113.76C9.78193 114.413 9.12252 114.949 8.37446 115.331C7.62641 115.713 6.80638 115.935 5.96748 115.98C5.12858 116.025 4.28949 115.894 3.50456 115.594C2.71962 115.295 2.00633 114.834 1.41086 114.241C0.81539 113.649 0.35102 112.938 0.0478141 112.154C-0.255392 111.371 -0.390676 110.532 -0.349279 109.693C-0.307881 108.854 -0.0907259 108.033 0.288128 107.283C0.666983 106.533 1.19909 105.871 1.85 105.34L25.61 81.5H12.84ZM88.84 99.7C88.84 101.291 88.2079 102.817 87.0826 103.943C85.9574 105.068 84.4313 105.7 82.84 105.7C81.2487 105.7 79.7226 105.068 78.5974 103.943C77.4721 102.817 76.84 101.291 76.84 99.7V72.53C76.84 70.9387 77.4721 69.4126 78.5974 68.2874C79.7226 67.1622 81.2487 66.53 82.84 66.53H110.52C112.111 66.53 113.637 67.1622 114.763 68.2874C115.888 69.4126 116.52 70.9387 116.52 72.53C116.52 74.1213 115.888 75.6474 114.763 76.7727C113.637 77.8979 112.111 78.53 110.52 78.53H97.33L121.12 102.24C122.058 103.39 122.537 104.847 122.464 106.329C122.391 107.811 121.771 109.214 120.724 110.266C119.677 111.318 118.277 111.945 116.795 112.025C115.313 112.105 113.854 111.633 112.7 110.7L88.86 86.93V99.7H88.84Z" fill="#364954"/>
</svg>
