<svg width="123" height="123" viewBox="0 0 123 123" fill="none" xmlns="http://www.w3.org/2000/svg">
<path d="M27.25 0H95.63C102.852 0.01585 109.774 2.89191 114.881 7.99885C119.988 13.1058 122.864 20.0277 122.88 27.25V95.63C122.864 102.852 119.988 109.774 114.881 114.881C109.774 119.988 102.852 122.864 95.63 122.88H27.25C20.0277 122.864 13.1058 119.988 7.99885 114.881C2.89191 109.774 0.01585 102.852 0 95.63L0 27.25C0.01585 20.0277 2.89191 13.1058 7.99885 7.99885C13.1058 2.89191 20.0277 0.01585 27.25 0ZM71.59 50.47C71.9071 50.1588 72.2825 49.913 72.6946 49.7469C73.1067 49.5807 73.5475 49.4973 73.9918 49.5015C74.4361 49.5057 74.8753 49.5973 75.2842 49.7712C75.6931 49.9451 76.0638 50.1979 76.375 50.515C76.6862 50.8321 76.932 51.2075 77.0981 51.6196C77.2643 52.0317 77.3477 52.4725 77.3435 52.9168C77.3393 53.3611 77.2477 53.8003 77.0738 54.2092C76.8999 54.6181 76.6471 54.9888 76.33 55.3L63.48 68C62.8449 68.62 61.9925 68.967 61.105 68.967C60.2175 68.967 59.3651 68.62 58.73 68L46.07 55.48C45.7529 55.1688 45.5001 54.7981 45.3262 54.3892C45.1523 53.9803 45.0607 53.5411 45.0565 53.0968C45.0523 52.6525 45.1357 52.2117 45.3019 51.7996C45.468 51.3875 45.7138 51.0121 46.025 50.695C46.3362 50.3779 46.7069 50.1251 47.1158 49.9512C47.5247 49.7773 47.9639 49.6857 48.4082 49.6815C48.8525 49.6773 49.2933 49.7607 49.7054 49.9269C50.1175 50.093 50.4929 50.3388 50.81 50.65L57.81 57.56L57.88 33.23C57.8586 32.77 57.9312 32.3104 58.0933 31.8793C58.2554 31.4483 58.5037 31.0548 58.8229 30.7228C59.1421 30.3909 59.5257 30.1275 59.9501 29.9486C60.3745 29.7698 60.8309 29.6793 61.2914 29.6828C61.7519 29.6862 62.2069 29.7834 62.6286 29.9684C63.0503 30.1535 63.4299 30.4225 63.7442 30.7592C64.0585 31.0958 64.3009 31.4929 64.4566 31.9263C64.6124 32.3597 64.6782 32.8203 64.65 33.28L64.58 57.43L71.58 50.43L71.59 50.47ZM34.48 81.55L34.53 68.31C34.5094 67.85 34.5828 67.3906 34.7456 66.9599C34.9084 66.5291 35.1572 66.1361 35.4769 65.8047C35.7966 65.4733 36.1805 65.2105 36.6051 65.0324C37.0297 64.8542 37.4862 64.7645 37.9467 64.7685C38.4071 64.7726 38.8619 64.8705 39.2833 65.0561C39.7047 65.2418 40.0838 65.5113 40.3976 65.8483C40.7114 66.1853 40.9533 66.5827 41.1084 67.0163C41.2636 67.4498 41.3287 67.9104 41.3 68.37V78.01C54.74 78.01 68.18 78.01 81.62 78.01V68.31C81.6239 67.8648 81.7155 67.4248 81.8895 67.015C82.0635 66.6052 82.3165 66.2337 82.6341 65.9217C82.9517 65.6097 83.3276 65.3633 83.7404 65.1966C84.1532 65.0298 84.5948 64.9461 85.04 64.95C85.4852 64.9539 85.9252 65.0455 86.335 65.2195C86.7448 65.3935 87.1163 65.6465 87.4283 65.9641C87.7403 66.2817 87.9867 66.6576 88.1534 67.0704C88.3202 67.4832 88.4039 67.9248 88.4 68.37L88.35 81.55C88.3116 82.415 87.9427 83.2323 87.3194 83.8333C86.696 84.4343 85.8658 84.7732 85 84.78C69.28 84.78 53.61 84.78 37.89 84.78C37.0242 84.7732 36.194 84.4343 35.5706 83.8333C34.9473 83.2323 34.5784 82.415 34.54 81.55H34.48ZM95.63 7H27.25C21.8875 7.02629 16.7521 9.1682 12.9601 12.9601C9.1682 16.7521 7.02629 21.8875 7 27.25V95.63C7.01583 101.006 9.1586 106.158 12.9603 109.96C16.762 113.761 21.9136 115.904 27.29 115.92H95.63C101.006 115.904 106.158 113.761 109.96 109.96C113.761 106.158 115.904 101.006 115.92 95.63V27.25C115.894 21.8806 113.746 16.7392 109.946 12.9461C106.145 9.15304 100.999 7.01577 95.63 7Z" fill="#364954"/>
</svg>
