<?xml version="1.0" encoding="UTF-8" standalone="no"?>
<!-- Created with Inkscape (http://www.inkscape.org/) -->

<svg
   xmlns:dc="http://purl.org/dc/elements/1.1/"
   xmlns:cc="http://creativecommons.org/ns#"
   xmlns:rdf="http://www.w3.org/1999/02/22-rdf-syntax-ns#"
   xmlns:svg="http://www.w3.org/2000/svg"
   xmlns="http://www.w3.org/2000/svg"
   xmlns:xlink="http://www.w3.org/1999/xlink"
   xmlns:sodipodi="http://sodipodi.sourceforge.net/DTD/sodipodi-0.dtd"
   xmlns:inkscape="http://www.inkscape.org/namespaces/inkscape"
   version="1.1"
   id="svg64"
   width="156"
   height="194.66667"
   viewBox="0 0 156 194.66667"
   sodipodi:docname="remember.svg"
   inkscape:version="0.92.5 (2060ec1f9f, 2020-04-08)">
  <metadata
     id="metadata70">
    <rdf:RDF>
      <cc:Work
         rdf:about="">
        <dc:format>image/svg+xml</dc:format>
        <dc:type
           rdf:resource="http://purl.org/dc/dcmitype/StillImage" />
        <dc:title></dc:title>
      </cc:Work>
    </rdf:RDF>
  </metadata>
  <defs
     id="defs68">
    <linearGradient
       inkscape:collect="always"
       id="linearGradient84">
      <stop
         style="stop-color:#8911b2;stop-opacity:1"
         offset="0"
         id="stop80" />
      <stop
         style="stop-color:#118ab2;stop-opacity:1"
         offset="1"
         id="stop82" />
    </linearGradient>
    <linearGradient
       inkscape:collect="always"
       xlink:href="#linearGradient84"
       id="linearGradient86"
       x1="73.116432"
       y1="2.7942586"
       x2="74.047852"
       y2="194.66667"
       gradientUnits="userSpaceOnUse" />
  </defs>
  <sodipodi:namedview
     pagecolor="#ffffff"
     bordercolor="#666666"
     borderopacity="1"
     objecttolerance="10"
     gridtolerance="10"
     guidetolerance="10"
     inkscape:pageopacity="0"
     inkscape:pageshadow="2"
     inkscape:window-width="915"
     inkscape:window-height="1020"
     id="namedview66"
     showgrid="false"
     inkscape:zoom="3.0366845"
     inkscape:cx="58.452286"
     inkscape:cy="104.46943"
     inkscape:window-x="90"
     inkscape:window-y="29"
     inkscape:window-maximized="0"
     inkscape:current-layer="svg64" />
  <rect
     style="opacity:1;fill:#ffffff;fill-opacity:1;fill-rule:evenodd;stroke:none;stroke-width:1.35471666;stroke-miterlimit:4;stroke-dasharray:none;stroke-opacity:1"
     id="rect912"
     width="129.0016"
     height="144.37003"
     x="13.505582"
     y="30.271133" />
  <ellipse
     style="opacity:1;fill:#ffffff;fill-opacity:1;fill-rule:evenodd;stroke:none;stroke-width:1.72130716;stroke-miterlimit:4;stroke-dasharray:none;stroke-opacity:1"
     id="path914"
     cx="83.119949"
     cy="91.542122"
     rx="13.995527"
     ry="27.003134"
     transform="rotate(-33.870041)" />
  <g
     id="g74"
     transform="translate(0.4657099,-0.93141952)"
     style="fill-opacity:1;fill:url(#linearGradient86)">
    <path
       style="fill:url(#linearGradient86);fill-opacity:1;stroke-width:1.33333337"
       d="M 11.333333,192.0613 C 9.8666667,191.45464 7.1666667,189.34462 5.3333333,187.37235 L 2,183.7864 1.6375288,99.920112 C 1.2328094,6.2787102 1.0558225,8.3178539 9.9091893,4.618681 13.703211,3.0334378 23.1867,2.6666667 60.38184,2.6666667 c 57.13854,0 54.77722,-0.5314853 72.37229,16.2895153 7.00908,6.700722 14.17882,14.631843 15.93276,17.624711 5.43158,9.26829 6.13722,19.75902 5.71044,84.897187 -0.36757,56.10182 -0.57985,60.92192 -2.83437,64.36076 -4.85552,7.40615 -5.82024,7.50208 -74.520135,7.40998 C 42.369271,193.20234 12.8,192.66795 11.333333,192.0613 Z m 42.71382,-42.72796 c 7.887524,-10.26667 14.49205,-18.66667 14.676724,-18.66667 0.184674,0 8.633347,4.8 18.77483,10.66667 C 97.640189,147.2 106.35214,152 106.85861,152 c 0.50646,0 1.94236,-2.67482 3.19089,-5.94406 3.07266,-8.04564 1.76883,-16.14101 -3.78136,-23.47815 -2.34748,-3.10327 -4.78358,-6.3236 -5.41356,-7.15628 -0.71725,-0.94804 1.401,-5.82514 5.66667,-13.04707 3.74665,-6.343209 6.81208,-12.102224 6.81208,-12.797816 0,-0.703584 2.34792,-0.455792 5.2919,0.558492 4.29303,1.479071 6.23427,1.512551 10.28459,0.177379 C 134.89659,88.338975 140,81.44596 140,75.333335 140,67.099601 135.57303,63.269812 107.33333,47.073298 82.454181,32.804178 80.281255,31.820717 74.91698,32.401727 c -6.883605,0.745572 -11.708537,4.813936 -13.736456,11.582526 -1.736324,5.795333 0.720776,12.974869 5.73486,16.757 l 3.190032,2.406245 -7.841136,13.092919 -7.841136,13.092918 h -8.010067 c -9.688262,0 -15.971973,2.725563 -20.761905,9.005488 -4.240752,5.559917 -5.177857,4.593787 16.015495,16.511457 C 49.55,119.28331 56,123.38317 56,123.96107 c 0,0.57791 -3.9,10.51828 -8.666667,22.08971 -4.766666,11.57144 -8.666666,21.24378 -8.666666,21.4941 0,1.51674 2.479276,-1.41889 15.380486,-18.21154 z M 66.991268,123.01805 C 47.003132,111.48694 30.835107,101.49468 31.062324,100.81303 c 1.631883,-4.895647 18.340705,-7.930994 24.551391,-4.460039 1.620876,0.905856 10.467752,5.997009 19.659724,11.313679 9.191972,5.31667 17.245982,9.66667 17.897802,9.66667 2.423903,0 10.699139,10.65117 12.035489,15.49105 1.33289,4.82732 0.75343,11.18433 -1.01794,11.16747 -0.4705,-0.004 -17.209386,-9.4427 -37.197522,-20.97381 z m 20.78794,-17.50203 C 83.635496,102.79129 75.99002,98.493435 70.78926,95.96524 65.5885,93.437044 61.344171,90.760604 61.357417,90.017595 c 0.04768,-2.67433 12.103754,-22.016281 13.687984,-21.960073 2.325739,0.08252 32.008029,17.679239 32.526119,19.282651 0.23817,0.737097 -2.42251,6.242865 -5.91263,12.235041 l -6.345661,10.894866 z m 8.887459,-33.598196 c -30.195596,-17.656311 -30,-17.50074 -30,-23.860966 0,-4.025925 0.791454,-5.819201 3.513145,-7.960084 1.932229,-1.519892 4.722519,-2.76344 6.200641,-2.76344 2.989718,0 53.166187,28.377212 55.810677,31.56363 2.84635,3.429649 2.07036,11.126905 -1.40551,13.941492 -5.62156,4.552064 -10.12031,3.112125 -34.118953,-10.920632 z M 141.04268,40.216667 c 0.77135,-2.328908 -27.78197,-30.8833335 -30.88214,-30.8833335 -2.12836,0 -2.28114,0.9271385 -1.48307,9.0000005 1.31847,13.336985 2.9849,18.540871 6.93137,21.645167 3.0418,2.392678 5.05505,2.733778 14.19387,2.404824 7.43604,-0.267662 10.82754,-0.921422 11.23997,-2.166658 z"
       id="path78"
       inkscape:connector-curvature="0" />
    <path
       style="fill:url(#linearGradient86);fill-opacity:1;stroke-width:1.33333337"
       d="M 12.124885,191.61695 C 9.6269053,190.72763 6.3269053,188.30647 4.7915519,186.2366 2.0397207,182.52674 1.9947027,181.31099 1.6277028,100.79392 1.223671,12.152297 1.2749974,11.438192 8.4318736,6.127349 12.091394,3.4117595 13.550999,3.3333334 60.431873,3.3333334 c 37.725104,0 49.396857,0.4037068 53.568127,1.8528346 6.4341,2.2352488 31.43489,26.091069 35.78608,34.147166 2.82855,5.236977 2.88745,6.556452 3.26045,73.033766 0.41658,74.24288 0.40008,74.41674 -7.44412,78.44816 -4.96342,2.55089 -126.513677,3.28094 -133.477525,0.80169 z m 39.277343,-38.28361 c 6.466145,-8.43334 13.031,-16.89284 14.588567,-18.7989 l 2.831938,-3.46556 17.921967,10.39854 c 9.857081,5.7192 18.70258,10.4287 19.65667,10.46556 2.43907,0.0942 5.59863,-8.15082 5.59863,-14.60994 0,-5.80416 -3.2095,-13.23791 -8.40971,-19.47833 L 100.38645,114 l 6.80678,-12.27485 c 5.85941,-10.566442 7.17792,-12.143807 9.47344,-11.333331 1.46666,0.517833 5.27902,0.923775 8.47191,0.902092 4.96812,-0.03373 6.45821,-0.751924 10.33334,-4.98042 5.87708,-6.413016 6.34203,-14.619808 1.17605,-20.75921 C 133.06659,61.29804 86.941848,33.990897 79.944032,31.98395 71.223445,29.482918 60,37.972874 60,47.070579 c 0,5.070337 2.200839,9.958371 6.11852,13.589155 l 3.479015,3.224243 -2.596032,3.724679 c -1.427819,2.048573 -4.838304,7.773608 -7.578858,12.722299 l -4.982825,8.997619 -4.942592,-0.790352 c -7.559343,-1.208787 -16.031436,1.682262 -21.782224,7.43305 -2.776585,2.776586 -5.031727,5.868928 -5.011425,6.871868 0.02031,1.00294 7.370302,5.97459 16.333333,11.04812 8.963032,5.07352 16.483823,9.36092 16.712869,9.52755 0.229046,0.16664 -3.820954,10.57941 -9,23.1395 -5.179046,12.56008 -9.416448,23.24268 -9.416448,23.73911 0,1.28904 0.974514,0.11398 14.068895,-16.96408 z M 68,123.28168 C 48.566667,112.00924 32.666667,102.00941 32.666667,101.05984 c 0,-0.94958 2.1,-2.807114 4.666666,-4.127858 7.739102,-3.982354 14.957647,-2.20236 32.111502,7.918248 8.175381,4.8234 17.360942,9.87418 20.41236,11.22397 6.202913,2.74384 10.119737,6.52523 13.320175,12.85959 2.17288,4.30061 3.01242,15.16169 1.15596,14.95473 -0.55,-0.0613 -16.899997,-9.3344 -36.33333,-20.60684 z m 16.943399,-19.87286 c -4.981132,-3.2271 -12.331132,-7.224665 -16.333334,-8.883485 -4.002202,-1.65882 -7.276732,-3.456052 -7.276732,-3.993848 0,-0.858245 11.512678,-21.01903 12.786295,-22.39112 0.462804,-0.498586 30.725032,16.470302 32.913722,18.455654 1.05948,0.961048 -10.628362,22.760239 -12.175525,22.708779 -0.471804,-0.0157 -4.933296,-2.66888 -9.914426,-5.89598 z M 94.668544,70.282029 C 75.055043,58.874732 68.377341,54.328041 67.477004,51.767948 64.393365,42.999666 72.190285,35.705746 80.800989,39.303529 c 7.050446,2.945864 49.100181,27.565369 50.865681,29.781111 2.18522,2.742517 2.058,9.620868 -0.23386,12.642831 -0.99864,1.316774 -3.82956,2.682372 -6.29093,3.034658 -3.84619,0.550492 -8.12943,-1.484785 -30.473336,-14.4801 z M 139.22428,43.190682 c 1.15999,-0.445125 2.10905,-1.785327 2.10905,-2.978227 0,-3.08219 -28.05784,-30.8791215 -31.16896,-30.8791215 -2.37284,0 -2.48585,0.7424635 -1.64596,10.8134585 0.93528,11.214811 3.23819,18.711191 6.34554,20.65585 3.45184,2.160245 20.5787,3.839189 24.36033,2.38804 z"
       id="path76"
       inkscape:connector-curvature="0" />
  </g>
</svg>
