<?xml version="1.0" encoding="UTF-8" standalone="no"?>
<!-- Created with Inkscape (http://www.inkscape.org/) -->

<svg
   xmlns:dc="http://purl.org/dc/elements/1.1/"
   xmlns:cc="http://creativecommons.org/ns#"
   xmlns:rdf="http://www.w3.org/1999/02/22-rdf-syntax-ns#"
   xmlns:svg="http://www.w3.org/2000/svg"
   xmlns="http://www.w3.org/2000/svg"
   xmlns:xlink="http://www.w3.org/1999/xlink"
   xmlns:sodipodi="http://sodipodi.sourceforge.net/DTD/sodipodi-0.dtd"
   xmlns:inkscape="http://www.inkscape.org/namespaces/inkscape"
   version="1.1"
   id="svg2535"
   width="373.33334"
   height="373.33334"
   viewBox="0 0 373.33334 373.33334"
   sodipodi:docname="switch_to_simplify1.svg"
   inkscape:version="0.92.5 (2060ec1f9f, 2020-04-08)">
  <metadata
     id="metadata2541">
    <rdf:RDF>
      <cc:Work
         rdf:about="">
        <dc:format>image/svg+xml</dc:format>
        <dc:type
           rdf:resource="http://purl.org/dc/dcmitype/StillImage" />
        <dc:title></dc:title>
      </cc:Work>
    </rdf:RDF>
  </metadata>
  <defs
     id="defs2539">
    <linearGradient
       inkscape:collect="always"
       id="linearGradient2555">
      <stop
         style="stop-color:#8911b2;stop-opacity:1"
         offset="0"
         id="stop2551" />
      <stop
         style="stop-color:#118ab2;stop-opacity:1"
         offset="1"
         id="stop2553" />
    </linearGradient>
    <linearGradient
       inkscape:collect="always"
       xlink:href="#linearGradient2555"
       id="linearGradient2557"
       x1="184.41165"
       y1="0.72076488"
       x2="190.09557"
       y2="370.80716"
       gradientUnits="userSpaceOnUse" />
  </defs>
  <sodipodi:namedview
     pagecolor="#ffffff"
     bordercolor="#666666"
     borderopacity="1"
     objecttolerance="10"
     gridtolerance="10"
     guidetolerance="10"
     inkscape:pageopacity="0"
     inkscape:pageshadow="2"
     inkscape:window-width="915"
     inkscape:window-height="1020"
     id="namedview2537"
     showgrid="false"
     inkscape:zoom="1.5834141"
     inkscape:cx="164.70659"
     inkscape:cy="199.38363"
     inkscape:window-x="1005"
     inkscape:window-y="29"
     inkscape:window-maximized="0"
     inkscape:current-layer="svg2535" />
  <ellipse
     style="opacity:1;fill:#ffffff;fill-opacity:1;fill-rule:evenodd;stroke:none;stroke-width:0.7577886;stroke-miterlimit:4;stroke-dasharray:none;stroke-opacity:1"
     id="path3124"
     cx="98.818405"
     cy="250.7731"
     rx="17.68331"
     ry="42.629406"
     transform="rotate(-44.847816)"
     inkscape:transform-center-x="-2.5036827"
     inkscape:transform-center-y="0.33648013" />
  <rect
     style="opacity:1;fill:#ffffff;fill-opacity:1;fill-rule:evenodd;stroke:none;stroke-width:1.33299994;stroke-miterlimit:4;stroke-dasharray:none;stroke-opacity:1"
     id="rect3126"
     width="130.09863"
     height="97.258202"
     x="116.83615"
     y="101.76824" />
  <rect
     style="opacity:1;fill:#ffffff;fill-opacity:1;fill-rule:evenodd;stroke:none;stroke-width:1.33299994;stroke-miterlimit:4;stroke-dasharray:none;stroke-opacity:1"
     id="rect3128"
     width="159.78133"
     height="110.52068"
     x="107.36295"
     y="185.13242" />
  <g
     id="g2545"
     transform="translate(2.5773213e-6)"
     style="fill-opacity:1;fill:url(#linearGradient2557)">
    <path
       style="fill:url(#linearGradient2557);fill-opacity:1;stroke-width:1.33333337"
       d="m 166.66667,369.28574 c -22.57812,-2.76371 -44.63122,-9.38961 -63.1306,-18.96772 -9.851014,-5.10039 -10.289162,-5.51127 -7.480099,-7.01464 3.335096,-1.78488 6.491639,-6.74812 6.563449,-10.32013 0.0406,-2.01975 1.40611,-1.66543 9.71392,2.52049 12.23439,6.16436 27.90918,11.61287 42.37854,14.73064 16.48864,3.55287 50.76126,3.24585 67.54855,-0.60512 25.69873,-5.89523 51.84868,-18.70507 70.23932,-34.40751 39.12238,-33.40376 58.64068,-73.00815 60.44547,-122.64923 0.84292,-23.1849 -1.2476,-39.04201 -7.68795,-58.31505 -2.15816,-6.45839 -3.90846,-12.15839 -3.88954,-12.66666 0.0189,-0.50828 3.06696,-2.98179 6.77345,-5.4967 7.93736,-5.38561 7.39436,-5.85266 13.02975,11.20705 7.31377,22.14062 8.82908,32.32934 8.82908,59.36551 0,27.24975 -1.59072,37.79481 -8.9504,59.33333 -21.29423,62.31881 -76.6354,110.1261 -140.38294,121.27193 -15.13297,2.64589 -40.96585,3.60926 -54,2.01381 z M 83.333335,336.44457 c -1.466667,-0.34647 -12.816054,-2.98519 -25.220859,-5.86382 -22.219398,-5.15617 -27.445809,-7.42484 -27.445809,-11.91362 0,-2.62326 33.589779,-41.96858 36.92042,-43.24667 4.242309,-1.62792 8.417142,5.10744 16.976119,27.388 9.121204,23.74415 10.645478,29.01404 9.087741,31.41917 -1.231913,1.90206 -6.687909,3.07438 -10.317612,2.21694 z M 112,302.52185 c -6.13153,-2.46748 -10.4937,-7.92524 -12.033733,-15.0561 -1.016337,-4.70597 -1.339784,-36.96863 -1.050657,-104.79908 0.408245,-95.775986 0.479313,-98.104836 3.13157,-102.619489 1.49262,-2.540717 4.79262,-5.840717 7.33334,-7.333333 4.38122,-2.573873 7.15196,-2.735631 53.71988,-3.136201 52.33391,-0.450168 67.62115,0.552456 77.92612,5.110836 8.77255,3.880514 36.59194,31.978397 40.3563,40.760297 4.84079,11.29309 5.45124,23.42618 5.02552,99.88456 -0.39279,70.54177 -0.50984,73.50567 -3.075,77.86063 -1.46667,2.49001 -4.36027,5.79001 -6.43022,7.33333 -3.71673,2.77113 -4.7451,2.80933 -82.66666,3.071 -50.45371,0.16943 -80.105,-0.21871 -82.23646,-1.07645 z m 68.41319,-11.29867 c 2.25305,-2.25305 3.96095,-6.05581 4.94031,-11 0.82325,-4.15608 1.77817,-8.55055 2.12204,-9.76548 0.46921,-1.65776 -3.29672,-4.52027 -15.09182,-11.47139 -30.99022,-18.26325 -44.27306,-25.65297 -46.11051,-25.65297 -1.02701,0 -5.25862,3.55545 -9.40358,7.90101 -7.91632,8.29944 -9.38327,12.88751 -5.68023,17.76565 2.72525,3.59007 4.36051,2.91359 12.08665,-5 7.31144,-7.48882 9.63322,-8.5574 12.45729,-5.73333 2.86858,2.86859 1.70941,5.72581 -5.00678,12.34101 -3.63373,3.5791 -6.29302,7.01511 -5.90954,7.6356 0.80953,1.30984 11.28552,6.81731 11.76108,6.18307 0.17582,-0.23449 2.22149,-3.80604 4.54593,-7.93679 5.70424,-10.13698 7.08985,-11.15681 10.93169,-8.04589 l 3.0674,2.48384 -4.89489,8.75289 c -2.69219,4.8141 -4.89428,9.2554 -4.89353,9.86958 7.4e-4,0.61419 3.00213,2.80209 6.66976,4.86201 l 6.6684,3.74532 1.16037,-3.07865 c 0.6382,-1.69325 1.6078,-5.17866 2.15465,-7.74532 1.42708,-6.69799 3.0918,-9.33334 5.89578,-9.33334 5.10925,0 5.80754,3.17751 2.86768,13.04906 -3.34235,11.22295 -3.36556,11.92824 -0.418,12.69851 4.889,1.27764 6.74186,0.81361 10.07985,-2.52439 z m 10.25348,-37.05992 c 0,-1.74354 -0.75,-3.7832 -1.66667,-4.5326 -0.91666,-0.74939 -12.39158,-7.48128 -25.49981,-14.95975 -23.33055,-13.31045 -23.88604,-13.54432 -26.34115,-11.08921 -2.4551,2.4551 -2.31802,2.6183 6.49982,7.73844 33.63329,19.52938 45.0961,26.0132 45.98902,26.0132 0.56034,0 1.01879,-1.42654 1.01879,-3.17008 z m 39.51425,-1.48838 c 4.97234,-2.59325 11.58344,-2.54329 16.74632,0.12654 3.92878,2.03165 4.07771,2.01554 3.08376,-0.33334 -3.77196,-8.91384 -3.93152,-12.35321 -0.86578,-18.6634 l 3.02253,-6.22128 -3.22228,2.11131 c -5.24136,3.43428 -11.92832,4.0994 -17.55943,1.74657 -2.77477,-1.15937 -5.24114,-2.10794 -5.48084,-2.10794 -0.23968,0 0.43359,2.08073 1.49618,4.62384 1.06257,2.54312 1.93196,6.16238 1.93196,8.04282 0,1.88044 -0.86939,5.49971 -1.93196,8.04283 -2.22083,5.31519 -2.27208,5.26665 2.77954,2.63205 z m -36.84758,-19.40776 c 0,-3.70308 -0.88688,-8.44792 -1.97086,-10.54408 -1.91233,-3.69806 -1.7222,-4.24037 6.4045,-18.26712 4.60644,-7.95076 10.30412,-17.84782 12.66152,-21.99349 l 4.28616,-7.53757 -9.47446,-5.46243 c -5.21094,-3.00433 -9.87174,-5.44796 -10.35732,-5.43029 -0.48558,0.0177 -6.58288,10.20321 -13.54954,22.63453 l -12.66667,22.60239 -6,0.088 c -3.3,0.0484 -8.03301,1.17121 -10.5178,2.4951 l -4.5178,2.40708 16.5178,9.71744 c 9.08479,5.34459 18.9178,11.13058 21.85113,12.85775 2.93334,1.72717 5.78334,3.146 6.33334,3.15293 0.55,0.007 1,-3.01718 1,-6.72026 z m 29.33333,-72.12981 c 0,-0.56083 -4.29719,-3.52937 -9.54932,-6.59677 -9.03803,-5.27851 -9.64483,-5.44648 -11.33333,-3.13731 -0.9812,1.34188 -1.78402,2.80191 -1.78402,3.24451 0,0.44258 4.35,3.30605 9.66667,6.36325 8.76396,5.03945 9.82231,5.35251 11.33333,3.35227 0.91667,-1.21344 1.66667,-2.66512 1.66667,-3.22595 z m -74.36119,-9.81756 c 6.31862,-0.94539 16.48574,1.86004 22.69452,6.26213 4.57563,3.24416 4.60002,2.438 0.13067,-4.31573 -2.76908,-4.18436 -3.66533,-7.43169 -4.13201,-14.97141 -0.5406,-8.73373 -0.22611,-10.32626 3.38578,-17.14447 l 3.98175,-7.5164 -7.5164,3.96773 c -6.6872,3.53002 -8.55931,3.91628 -16.97,3.50125 -7.58344,-0.3742 -10.54516,-1.18884 -14.97141,-4.118 -6.92945,-4.58569 -7.74003,-4.58298 -4.53072,0.0152 8.00256,11.46559 8.61241,23.18267 1.8559,35.65723 l -3.76694,6.9549 7.0722,-3.7202 c 3.8897,-2.04609 9.63473,-4.10358 12.76672,-4.57218 z m 82.3758,-3.65308 c 3.6702,-6.01956 3.43082,-12.34245 -0.62068,-16.39394 -3.45944,-3.45945 -9.60177,-4.32569 -13.99622,-1.97385 -2.21034,1.18294 -8.6993,10.63136 -7.78523,11.33588 0.78423,0.60444 19.06599,11.26047 19.40712,11.31196 0.19411,0.0293 1.54187,-1.89672 2.99501,-4.28005 z m 40.38838,-27.53632 c 1.9828,-1.9828 -0.81587,-5.43144 -18.87772,-23.262002 -11.04618,-10.904724 -17.9381,-16.770587 -18.96119,-16.138277 -1.16965,0.722888 -1.38069,4.443451 -0.77503,13.663885 0.87938,13.387194 4.25218,23.174854 8.60555,24.972784 7.17748,2.96428 27.29577,3.47622 30.00839,0.76361 z M 33.445315,287.77459 C 20.575048,268.11503 11.529231,246.13692 6.4769906,222.25122 2.3362038,202.67462 2.3593883,170.27703 6.5282182,150.66667 10.572236,131.64343 14.965395,119.20722 23.391307,102.9304 41.039465,68.838452 68.347193,41.022569 101.38831,23.482002 145.81424,-0.10243523 204.13603,-3.8184387 251.27747,13.931734 c 18.22527,6.862362 41.30214,20.318228 54.72254,31.908109 l 5.33333,4.605878 -3.33333,1.290789 c -3.66858,1.420606 -7.13463,4.967954 -8.4366,8.634482 -0.72699,2.047272 -1.89244,1.51531 -8.536,-3.896207 C 251.54128,24.311375 195.85658,12.177531 146.66667,25.018202 116.8267,32.80771 93.35376,45.701539 72.121953,65.966059 42.311483,94.418414 25.423348,129.26762 21.189474,171.06684 c -3.417526,33.73975 4.163057,68.3408 21.599644,98.59008 l 6.719394,11.65693 -5.629638,6.67641 c -3.096301,3.67203 -5.695331,6.67641 -5.775623,6.67641 -0.08029,0 -2.176362,-3.10144 -4.657936,-6.89208 z M 314.82637,121.63172 c -1.63864,-3.06183 -3.41475,-13.71972 -6.21502,-37.294546 -2.06644,-17.396869 -2.07773,-19.268852 -0.13414,-22.235136 1.93942,-2.95993 2.5559,-3.122725 7.15586,-1.889628 9.20458,2.467448 48.51947,23.996894 50.08164,27.425478 1.89494,4.158939 0.0811,5.868274 -24.30809,22.906812 -19.29395,13.47897 -24.20403,15.52704 -26.58025,11.08702 z"
       id="path2549"
       inkscape:connector-curvature="0" />
    <path
       style="fill:url(#linearGradient2557);fill-opacity:1;stroke-width:1.33333337"
       d="m 172,369.27578 c -15.38645,-1.38637 -26.51809,-3.52091 -39.27443,-7.53104 -10.56339,-3.32075 -29.34103,-11.24647 -34.904294,-14.73252 l -2.845392,-1.78297 3.845392,-3.84539 c 2.171504,-2.17151 3.845394,-5.2852 3.845394,-7.15304 v -3.30767 l 7.53832,4.08294 c 10.15398,5.49962 25.38751,11.1536 39.12835,14.5226 16.10634,3.94898 48.16321,4.88388 65.2812,1.90384 86.02976,-14.97675 146.80373,-93.69906 138.69745,-179.65889 -1.46037,-15.48596 -4.84316,-31.00214 -9.33802,-42.83165 -1.39804,-3.67935 -2.31347,-7.05933 -2.03428,-7.51106 0.27918,-0.45173 3.26105,-2.79871 6.62637,-5.2155 l 6.11876,-4.39416 2.75672,6.4227 c 10.74075,25.02426 15.43799,60.70926 11.81924,89.79101 -5.11645,41.11786 -23.13699,78.27955 -52.23779,107.72403 C 279.36938,353.8573 224.71592,374.02567 172,369.27578 Z M 76.666668,334.69805 c -2.2,-0.61742 -12.246187,-3.02779 -22.324858,-5.35639 -20.557752,-4.74971 -25.088652,-7.17879 -22.7921,-12.21916 1.990825,-4.36939 32.059798,-38.83987 35.148363,-40.2934 5.858064,-2.7569 8.065216,0.75054 19.301229,30.67208 4.480184,11.93075 7.291924,21.42581 7.057328,23.83216 -0.365758,3.75172 -0.762376,4.01512 -6.389962,4.24364 -3.3,0.134 -7.8,-0.26152 -10,-0.87893 z M 108.55996,300.15243 C 99.667016,294.72954 100,299.1411 100,186.74538 c 0,-98.124678 0.0872,-101.689164 2.60792,-106.630215 4.73194,-9.275378 5.96601,-9.448497 67.35344,-9.448497 56.8146,0 63.992,0.58878 73.37198,6.018885 8.4271,4.878487 34.6994,32.369857 38.26195,40.037357 l 3.07138,6.61043 L 285.08403,204 c 0.28366,54.82208 -0.042,82.22899 -1.01646,85.54302 -0.78862,2.68199 -3.54731,6.73199 -6.13043,9 l -4.69659,4.12365 -80.28695,-0.005 c -76.19997,-0.005 -80.49598,-0.1324 -84.39364,-2.50925 z m 70.31978,-6.93312 c 3.43644,-1.83913 7.27132,-10.61844 8.39517,-19.21931 l 0.87111,-6.66666 -7.73968,-4.35144 c -4.25682,-2.3933 -10.13967,-5.76918 -13.073,-7.50196 C 164.4,253.74715 154.02,247.72454 144.26667,242.09636 l -17.73332,-10.23305 -6.53367,5.47029 c -11.78281,9.86514 -14.35633,17.58038 -7.83326,23.48367 2.51035,2.27184 2.85928,2.08319 10.91595,-5.90187 4.57749,-4.5368 9.03546,-8.24873 9.9066,-8.24873 0.87113,0 2.26474,1.27221 3.09691,2.82715 1.34338,2.5101 0.65906,3.69013 -6.10244,10.52292 l -7.61549,7.6958 5.93317,3.47706 c 3.26324,1.91239 6.57882,3.47707 7.36794,3.47707 0.78912,0 3.61577,-3.9 6.28145,-8.66667 4.91543,-8.78961 5.51672,-9.29906 9.27377,-7.85734 3.26832,1.25417 2.53488,4.95138 -2.73822,13.80338 -2.66602,4.47544 -4.61602,8.31167 -4.33334,8.52495 2.3496,1.77278 13.25959,7.52902 14.26998,7.52902 0.70465,0 2.34266,-4.05 3.64002,-9.00001 2.7784,-10.60074 3.43235,-11.55154 7.1364,-10.37593 3.51455,1.11548 3.54706,4.18831 0.16204,15.32074 -2.01197,6.61688 -2.24122,8.85116 -0.98981,9.64625 2.34089,1.48731 7.36693,1.30951 10.50839,-0.37175 z m 10.2898,-43.88597 c -1.5591,-1.1 -13.41006,-8.11058 -26.33546,-15.57906 l -23.50074,-13.57906 -2.98844,2.80061 -2.98844,2.80061 4.32177,2.64756 c 2.37697,1.45616 15.11733,8.86164 28.31191,16.45663 l 23.99014,13.80907 1.01199,-3.67819 c 0.80737,-2.93451 0.43885,-4.08253 -1.82273,-5.67817 z M 238,251.77778 c 3.8638,0 7.6942,1.05181 10.78344,2.96106 l 4.7911,2.96106 -2.88011,-5.64548 c -4.38863,-8.60242 -3.87796,-15.28871 1.78623,-23.38775 l 2.79745,-4 -3.30572,2.34679 c -1.81815,1.29073 -4.80572,2.9934 -6.63905,3.78372 -4.48276,1.93241 -15.44859,0.78182 -18.45183,-1.93608 -3.82829,-3.46456 -4.3534,-2.58171 -1.42079,2.38872 3.56252,6.03801 3.55382,13.98698 -0.0228,20.84894 l -2.8753,5.5164 4.72253,-2.91869 c 3.02447,-1.86921 6.87721,-2.91869 10.71489,-2.91869 z m -46.3773,-29.51067 c -1.68946,-2.54445 -0.79408,-4.61256 10.59932,-24.48169 6.84456,-11.93636 12.43076,-22.17114 12.41378,-22.74395 -0.0309,-1.04208 -18.26084,-11.76045 -19.81294,-11.64909 -0.76642,0.0549 -18.7794,30.59308 -23.75592,40.27429 -1.87608,3.64971 -2.97735,4.33795 -6.98055,4.36261 -5.10708,0.0315 -16.08639,4.39035 -16.08639,6.38643 0,0.66701 3.45,3.10267 7.66667,5.41257 4.21667,2.3099 10.06667,5.61602 13,7.34695 2.93333,1.73092 9.53333,5.60277 14.66667,8.60411 l 9.33333,5.45697 0.40068,-8.09499 c 0.26091,-5.27105 -0.24307,-9.06452 -1.44465,-10.87421 z m 30.51202,-58.99587 c 0.46872,-1.86748 0.63015,-3.57397 0.35875,-3.79218 -0.27141,-0.21822 -4.69347,-2.88856 -9.8268,-5.9341 -8.52483,-5.05766 -9.47771,-5.34234 -11,-3.2863 C 200.75,151.49672 200,153.26606 200,154.19052 c 0,1.74059 16.74043,12.32871 19.64127,12.42287 0.90269,0.0293 2.02475,-1.47467 2.49345,-3.34215 z M 138,155.30736 c 11.57323,-5.6963 22.75019,-4.14274 35.66667,4.95755 4.67593,3.29441 4.62057,2.36217 -0.25975,-4.37492 -7.41101,-10.23061 -8.2751,-25.69561 -1.98669,-35.55665 1.05221,-1.65 2.87971,-4.49634 4.06112,-6.32519 2.03157,-3.14494 1.73387,-3.07581 -5.49209,1.27544 -13.12763,7.90504 -25.67403,7.68642 -37.69491,-0.65684 -3.1381,-2.17804 -5.94753,-3.96008 -6.24316,-3.96008 -0.29564,0 1.46791,2.98005 3.91899,6.62235 5.16897,7.68105 7.6694,17.45753 6.16138,24.09052 -1.20069,5.28121 -6.07005,15.37013 -9.28691,19.24176 -2.13915,2.57456 -2.11855,2.5798 1.15535,0.29433 1.83334,-1.27983 6.33334,-3.80355 10,-5.60827 z m 93.99076,-9.28826 c 2.51,-5.18498 2.6885,-6.60759 1.34122,-10.68987 -1.89408,-5.73915 -7.75147,-9.22158 -13.41739,-7.97713 C 216.04311,128.20242 208,136.45218 208,139.57282 c 0,1.67114 16.7559,12.2778 19.54772,12.3739 0.85126,0.0293 2.85062,-2.63813 4.44304,-5.92762 z m 37.9178,-25.12069 c 1.61186,-1.17861 2.13283,-2.66753 1.56232,-4.46502 -1.42256,-4.48209 -35.09121,-36.705575 -37.78068,-36.15901 -2.06808,0.420284 -2.30969,1.862319 -1.97186,11.768963 0.43201,12.668987 3.0816,22.457307 7.05138,26.049917 4.58872,4.15274 26.58587,6.13436 31.13884,2.80515 z M 32.487234,285.66667 C 20.045908,266.31142 10.20383,240.51227 5.9170494,216.01794 3.3940145,201.60151 3.3663363,170.67662 5.8639081,156.64307 13.309113,114.8094 30.888777,81.940347 61.492745,52.632725 90.956872,24.416662 128.18665,7.930932 171.92434,3.7324791 c 34.61784,-3.32302379 76.53058,5.8210036 105.99109,23.1238829 10.57795,6.212695 25.67839,17.011516 29.14623,20.843438 2.18252,2.41166 2.13612,2.600592 -0.98835,4.024193 -1.8031,0.821551 -4.23722,3.34794 -5.40914,5.614197 l -2.13079,4.120468 -3.60001,-2.762106 C 274.72696,43.193255 260.64352,35.188154 243.15532,29.265638 193.73298,12.528376 140.5557,18.179908 98.666668,44.621485 60.107996,68.960848 33.110822,107.44772 23.344443,152 c -3.081339,14.05646 -4.071101,41.43592 -2.039033,56.40503 2.992304,22.04261 11.324099,45.69396 22.563428,64.05051 l 5.585332,9.12219 -5.060417,5.75221 c -2.783231,3.16372 -5.491982,5.80873 -6.019447,5.87781 -0.527467,0.0691 -3.176648,-3.32441 -5.887072,-7.54108 z M 315.43218,121 c -2.33993,-3.57674 -7.78027,-44.339529 -7.18012,-53.798528 0.37533,-5.915651 0.74256,-6.5729 3.87593,-6.936886 4.24035,-0.492577 47.08796,20.617334 51.57638,25.410353 1.91202,2.041791 2.7158,4.082671 2.16905,5.507492 C 364.61134,94.47135 322.68725,124 319.27979,124 c -1.03673,0 -2.76816,-1.35 -3.84761,-3 z"
       id="path2547"
       inkscape:connector-curvature="0" />
  </g>
</svg>
