<?xml version="1.0" encoding="UTF-8" standalone="no"?>
<!-- Created with Inkscape (http://www.inkscape.org/) -->

<svg
   xmlns:dc="http://purl.org/dc/elements/1.1/"
   xmlns:cc="http://creativecommons.org/ns#"
   xmlns:rdf="http://www.w3.org/1999/02/22-rdf-syntax-ns#"
   xmlns:svg="http://www.w3.org/2000/svg"
   xmlns="http://www.w3.org/2000/svg"
   xmlns:xlink="http://www.w3.org/1999/xlink"
   xmlns:sodipodi="http://sodipodi.sourceforge.net/DTD/sodipodi-0.dtd"
   xmlns:inkscape="http://www.inkscape.org/namespaces/inkscape"
   version="1.1"
   id="svg3217"
   width="352"
   height="350.66666"
   viewBox="0 0 352 350.66666"
   sodipodi:docname="switch_to_summarize.svg"
   inkscape:version="0.92.5 (2060ec1f9f, 2020-04-08)">
  <metadata
     id="metadata3223">
    <rdf:RDF>
      <cc:Work
         rdf:about="">
        <dc:format>image/svg+xml</dc:format>
        <dc:type
           rdf:resource="http://purl.org/dc/dcmitype/StillImage" />
        <dc:title></dc:title>
      </cc:Work>
    </rdf:RDF>
  </metadata>
  <defs
     id="defs3221">
    <linearGradient
       inkscape:collect="always"
       id="linearGradient3237">
      <stop
         style="stop-color:#8911b2;stop-opacity:1"
         offset="0"
         id="stop3233" />
      <stop
         style="stop-color:#118ab2;stop-opacity:1"
         offset="1"
         id="stop3235" />
    </linearGradient>
    <linearGradient
       inkscape:collect="always"
       xlink:href="#linearGradient3237"
       id="linearGradient3239"
       x1="174.64734"
       y1="2.1091223"
       x2="177.02014"
       y2="350.31915"
       gradientUnits="userSpaceOnUse" />
  </defs>
  <sodipodi:namedview
     pagecolor="#ffffff"
     bordercolor="#666666"
     borderopacity="1"
     objecttolerance="10"
     gridtolerance="10"
     guidetolerance="10"
     inkscape:pageopacity="0"
     inkscape:pageshadow="2"
     inkscape:window-width="915"
     inkscape:window-height="1020"
     id="namedview3219"
     showgrid="false"
     inkscape:zoom="1.6857641"
     inkscape:cx="155.28417"
     inkscape:cy="113.67302"
     inkscape:window-x="1005"
     inkscape:window-y="29"
     inkscape:window-maximized="0"
     inkscape:current-layer="svg3217" />
  <ellipse
     style="opacity:1;fill:#ffffff;fill-opacity:1;fill-rule:evenodd;stroke:none;stroke-width:1.11773109;stroke-miterlimit:4;stroke-dasharray:none;stroke-opacity:1"
     id="path3787"
     cx="241.85426"
     cy="-77.407211"
     rx="43.952507"
     ry="18.744822"
     transform="matrix(0.74293392,0.66936477,-0.63457659,0.77285998,0,0)" />
  <rect
     style="opacity:1;fill:#ffffff;fill-opacity:1;fill-rule:evenodd;stroke:none;stroke-width:1.33299994;stroke-miterlimit:4;stroke-dasharray:none;stroke-opacity:1"
     id="rect3789"
     width="123.38618"
     height="88.980423"
     x="106.1833"
     y="81.352585" />
  <rect
     style="opacity:1;fill:#ffffff;fill-opacity:1;fill-rule:evenodd;stroke:none;stroke-width:1.33299994;stroke-miterlimit:4;stroke-dasharray:none;stroke-opacity:1"
     id="rect3791"
     width="141.18227"
     height="141.18227"
     x="116.26775"
     y="131.77483" />
  <rect
     style="opacity:1;fill:#ffffff;fill-opacity:1;fill-rule:evenodd;stroke:none;stroke-width:1.46990824;stroke-miterlimit:4;stroke-dasharray:none;stroke-opacity:1"
     id="rect3795"
     width="152.45311"
     height="153.63953"
     x="104.99689"
     y="119.31756" />
  <g
     id="g3227"
     transform="translate(-0.83891295,0.34749017)"
     style="fill-opacity:1;fill:url(#linearGradient3239)">
    <path
       style="fill:url(#linearGradient3239);fill-opacity:1;stroke-width:1.33333337"
       d="m 154.66667,346.63953 c -20.8351,-2.89084 -40.51882,-8.81826 -57.130803,-17.20396 -9.07074,-4.5789 -10.662055,-6.23178 -7.090904,-7.36522 C 92.973892,321.26771 96,316.11086 96,312.60393 c 0,-2.48666 0.309263,-2.45026 5.59045,0.6579 2.42525,1.42735 10.08454,4.78435 17.02063,7.46002 48.29549,18.63042 105.03751,11.80956 146.37239,-17.59522 45.4041,-32.29952 70.83384,-87.17538 65.68733,-141.74941 -1.32524,-14.05308 -5.01909,-30.84311 -8.75005,-39.77256 C 320.86433,119.07631 320,116.29644 320,115.42717 c 0,-1.65218 11.89213,-10.64615 12.83285,-9.70544 1.3937,1.39371 7.52174,18.6532 9.80358,27.6116 11.82362,46.41901 2.79672,97.1694 -24.69215,138.82226 -9.12857,13.83218 -33.31587,37.7066 -47.65719,47.0407 -19.24956,12.52865 -42.09705,21.74044 -63.45946,25.58597 -14.09972,2.53815 -40.48308,3.47756 -52.16096,1.85727 z M 68.666667,314.05773 C 65,313.08918 55.409935,310.72323 47.355411,308.80007 31.070872,304.91183 26.727388,302.20258 29.242885,297.50233 c 2.018867,-3.77228 28.932555,-35.02501 32.106203,-37.28239 3.779853,-2.68856 7.44408,-0.74612 10.370628,5.49755 5.964708,12.72546 16.408633,42.7389 16.025451,46.05346 -0.373306,3.22911 -0.973146,3.58508 -6.411834,3.80507 -3.3,0.13348 -9,-0.54975 -12.666666,-1.51829 z m 40.000003,-29.93508 c -6.99986,-1.73759 -10.159685,-4.19019 -12.750739,-9.8969 -2.398626,-5.28289 -2.525384,-10.19638 -2.551243,-98.89242 C 93.334291,71.070179 92.924645,75.706911 102.66667,70.045356 107.1529,67.438192 109.44701,67.333332 162,67.333332 h 54.66667 l 7.98569,3.738957 c 6.04113,2.8285 11.58933,7.373936 22.78472,18.666667 21.53891,21.726184 19.89625,12.953154 19.89625,106.261044 0,73.09999 -0.11773,76.84041 -2.53133,80.40147 -5.72701,8.44984 -3.73977,8.24276 -81.46867,8.48966 -38.86666,0.12346 -72.46666,-0.22236 -74.66666,-0.76848 z m 139.06666,-19.05599 c 0.88,-0.88 1.6,-2.30737 1.6,-3.17194 0,-0.86456 -5.7,-8.91719 -12.66666,-17.89472 C 229.7,235.02246 224,227.44138 224,227.15314 c 0,-0.28824 1.88063,-2.20441 4.17916,-4.25816 3.45533,-3.08733 3.93839,-4.18101 2.78899,-6.31453 -1.26318,-2.34468 -25.54651,-13.94884 -29.13823,-13.92413 -3.88559,0.0267 -4.51429,3.55521 -3.09604,17.37577 2.02637,19.74653 3.62772,21.65608 12.88532,15.36537 l 4.81105,-3.26918 11.24151,14.26918 c 17.79005,22.58147 16.94019,21.79059 20.06157,18.6692 z m -55.06666,-72.87673 c 27.86666,-20.17585 51.0748,-37.29001 51.57362,-38.03147 C 245.44915,152.36164 243.0282,148 240.82201,148 c -0.96296,0 -9.79185,5.79645 -19.61976,12.881 -44.0742,31.77134 -85.20688,62.0478 -85.96685,63.27746 -1.13435,1.8354 3.42423,6.65658 5.27613,5.58008 0.81866,-0.47589 24.28847,-17.37276 52.15514,-37.54861 z m -16.47752,-16.26351 c 27.39597,-19.84046 50.88422,-37.13049 52.19612,-38.42229 2.53921,-2.50033 1.99388,-6.15084 -1.09598,-7.33653 -1.01082,-0.38789 -5.31442,1.84607 -9.56357,4.96436 C 213.47657,138.25025 190.2,155.11261 166,172.60388 c -24.2,17.49126 -44.22206,31.98297 -44.49346,32.20378 -1.21909,0.99186 1.40285,7.19234 3.04135,7.19234 1.00672,0 24.2453,-16.23311 51.64126,-36.07358 z m -9.97746,-21.99729 c 1.34699,-3.5102 -2.37612,-31.07241 -4.42721,-32.77466 -1.97287,-1.63734 -4.84228,-0.68343 -10.57548,3.51571 -2.68968,1.96999 -3.28783,1.41156 -16.47731,-15.38303 -13.61126,-17.331666 -16.13394,-19.233336 -19.15327,-14.43832 -1.10741,1.758672 1.24411,5.51069 12.11683,19.33333 l 13.4909,17.15117 -3.9264,3.43044 c -6.96252,6.08303 -5.5499,8.64744 8.40692,15.26156 13.03845,6.17891 19.22117,7.35371 20.54502,3.9038 z m 89.01259,-38.73845 c 1.15999,-0.44513 2.10905,-1.78646 2.10905,-2.98075 0,-3.09039 -32.05514,-34.876598 -35.17169,-34.876598 -2.3602,0 -2.48203,0.750479 -1.67745,10.333333 1.7631,20.999375 4.70354,25.867215 16.37594,27.110055 11.4481,1.21896 15.99902,1.32155 18.36415,0.41396 z M 29.586971,267.71506 C 2.3719452,225.90609 -4.5934359,170.52694 11.2715,122.09559 43.163893,24.736745 151.32135,-23.502585 245.14107,17.787376 258.85193,23.821513 276.38792,34.684318 286,43.09777 l 5.33333,4.668262 -3.6028,1.393036 c -1.98154,0.76617 -4.54622,3.217399 -5.69929,5.447178 l -2.09648,4.054141 -8.30071,-6.459391 C 230.20375,19.961068 175.69429,10.381346 126.64707,26.720374 72.940297,44.611636 33.366699,89.17612 22.053889,144.50449 c -7.56997,37.023 -0.44796,79.10092 18.624303,110.0352 l 6.021732,9.76696 -4.935217,5.51333 c -2.714371,3.03235 -5.337188,5.68512 -5.828486,5.89508 -0.491298,0.20995 -3.348461,-3.39005 -6.34925,-8 z M 295.35329,114.21758 C 293.29124,111.0705 288,74.870677 288,63.910359 c 0,-10.683627 4.00264,-10.077775 32.80787,4.9659 20.54013,10.727178 24.59705,13.910695 22.34596,17.535121 -1.75874,2.83169 -38.78671,28.96156 -42.74631,30.16518 -2.20945,0.67162 -3.44695,0.094 -5.05423,-2.35898 z"
       id="path3231"
       inkscape:connector-curvature="0" />
    <path
       style="fill:url(#linearGradient3239);fill-opacity:1;stroke-width:1.33333337"
       d="m 166,347.11043 c -26.18075,-2.16622 -46.27493,-7.43768 -66.666667,-17.48913 -5.133333,-2.53032 -9.519697,-4.7666 -9.747474,-4.96953 -0.227778,-0.20292 1.122222,-1.90531 3,-3.78308 C 94.463636,318.9909 96,316.22726 96,314.72726 c 0,-3.53332 0.680292,-3.45951 10.09705,1.09548 12.81077,6.19671 26.06462,10.52157 41.188,13.44009 48.27487,9.31608 101.48328,-6.80845 136.5761,-41.3887 43.78418,-43.14467 59.06989,-104.9146 40.02754,-161.75222 -3.13516,-9.35783 -3.62986,-12.16728 -2.27972,-12.94643 0.9484,-0.5473 3.79771,-2.54068 6.3318,-4.42973 5.32231,-3.96756 4.9505,-4.34347 9.8128,9.92091 11.96034,35.0876 12.21667,77.34407 0.67434,111.16454 -19.43731,56.95374 -65.60748,99.00305 -123.79391,112.74485 -9.83604,2.32296 -38.17359,5.83326 -41.96733,5.19869 -0.73334,-0.12267 -3.73334,-0.4216 -6.66667,-0.66431 z M 56.444144,310.65417 C 31.977152,304.85586 29.333333,303.7741 29.333333,299.5613 c 0,-3.10769 30.350012,-39.01184 34.238195,-40.50388 3.661589,-1.40508 7.161531,4.34176 15.046703,24.70639 9.177824,23.7031 10.214388,27.62637 8.003112,30.2908 -2.291035,2.76052 -5.892122,2.35474 -30.177199,-3.40044 z M 106,283.07047 c -4.60457,-1.145 -9.691099,-7.10094 -11.207505,-13.12314 -1.942383,-7.71391 -2.021703,-181.868436 -0.086,-188.837644 0.767572,-2.763535 3.420462,-6.700929 6.100055,-9.053646 l 4.74178,-4.163335 56.8925,0.38698 c 67.59232,0.45976 61.01098,-1.225446 83.91886,21.488105 22.42906,22.2388 20.79222,14.71714 21.37688,98.23221 0.26438,37.76666 0.0767,72.48565 -0.41714,77.15329 -0.75012,7.09024 -1.62854,9.2841 -5.33872,13.33333 l -4.44088,4.84671 -74.43658,0.20013 C 142.16312,283.64353 107.46667,283.43518 106,283.07047 Z m 142.56879,-18.49641 c 2.6562,-2.6562 2.50354,-2.92712 -12.34447,-21.9074 l -11.99504,-15.33333 3.88536,-3.59151 c 6.86991,-6.35033 5.2082,-8.60882 -11.89369,-16.16521 -17.78004,-7.85601 -19.72299,-6.78437 -18.31144,10.09976 1.39642,16.70339 2.81208,20.99029 6.93157,20.99029 1.87273,0 4.93053,-1.2 6.79509,-2.66666 1.86456,-1.46667 3.80586,-2.66667 4.31399,-2.66667 0.50812,0 6.77123,7.5 13.91801,16.66667 7.14679,9.16666 13.80727,16.66666 14.80108,16.66666 0.99382,0 2.7486,-0.94167 3.89954,-2.0926 z m -90.73758,-46.5645 c 21.12392,-15.27631 50.56275,-36.67084 71.83546,-52.20611 8.61666,-6.29268 15.66666,-12.17973 15.66666,-13.08236 0,-0.90261 -1.11869,-2.65352 -2.48597,-3.89091 -2.74555,-2.48468 -0.0744,-4.20138 -50.84736,32.67914 -10.63333,7.72385 -27.88333,20.23086 -38.33333,27.79336 -11.25408,8.1444 -19,14.64974 -19,15.95698 0,2.40102 2.4635,5.407 4.43121,5.407 0.67717,0 9.10717,-5.69569 18.73333,-12.6571 z m 20.83546,-43.30528 c 31.71914,-23.02586 51.48528,-38.22087 51.73101,-39.76767 0.46239,-2.91067 -2.9276,-6.20736 -5.38071,-5.23262 -2.20666,0.87683 -96.55909,69.27795 -101.43692,73.53706 -3.16889,2.76693 -3.5249,3.70399 -2.28643,6.01808 0.80678,1.50748 2.49576,2.73381 3.75329,2.7252 1.25753,-0.009 25.38642,-16.78464 53.61976,-37.28005 z m -13.32551,-19.38039 c 1.23844,-1.49221 1.42543,-5.52472 0.72645,-15.66667 -1.2953,-18.79464 -4.67058,-23.29807 -12.73428,-16.99056 -1.83333,1.43406 -3.93333,2.59133 -4.66666,2.57173 -0.73334,-0.0196 -6.13334,-6.33677 -12,-14.03814 -13.59798,-17.850513 -16.06934,-20.229309 -19.05993,-18.346056 -1.25037,0.787395 -2.44559,2.30404 -2.65603,3.370324 -0.21044,1.066284 5.33956,9.274582 12.33334,18.240652 6.99378,8.96608 12.71595,16.61809 12.71595,17.00447 0,0.38639 -1.8,2.21712 -4,4.06829 -7.03702,5.92127 -5.19006,8.29397 12.66667,16.27231 13.67117,6.10825 14.39465,6.2607 16.67449,3.51365 z m 91.77688,-43.18371 c 0.36013,-2.54764 -2.47003,-6.13793 -14,-17.760148 -15.91061,-16.037916 -21.28231,-19.907364 -22.65827,-16.321659 -1.27214,3.31516 0.68702,22.502817 2.81854,27.604287 3.44209,8.23808 8.27061,10.28509 23.38836,9.91528 9.45354,-0.23124 10.02466,-0.4191 10.45137,-3.43776 z M 30.457732,268.27061 C -4.5614525,213.48652 -5.7721312,143.25708 27.33722,87.254985 52.163309,45.263434 96.300204,14.685629 144.67251,5.9657252 160.46923,3.1181062 190.17743,3.1161325 206,5.9616507 231.22409,10.497931 256.22876,21.488684 278.23991,37.714553 l 12.59072,9.281453 -4.10918,2.498933 c -2.26004,1.374413 -4.76946,3.948136 -5.57649,5.719381 l -1.46735,3.220448 -7.31149,-5.955293 C 252.93591,36.653347 227.11593,25.067585 201.21815,20.554434 184.68849,17.673852 154.72767,18.606426 139.33333,22.48069 88.752059,35.210391 47.812971,70.780213 29.421459,117.97734 c -6.876034,17.64559 -9.42915,29.91079 -10.354404,49.74267 -1.476036,31.63732 5.024316,58.81751 20.53979,85.88389 6.446972,11.2466 6.424655,12.08047 -0.4996,18.66671 l -3.788904,3.60394 z M 294.8458,112.33333 c -1.98511,-4.92565 -7.15535,-48.215233 -6.21055,-51.999998 1.23266,-4.937958 6.93204,-3.7041 25.73908,5.572251 23.77598,11.727221 28.29234,14.709221 28.29234,18.680459 0,2.642764 -3.6236,5.743764 -20.23495,17.316608 C 311.30251,109.65619 300.87531,116 299.26015,116 c -1.95647,0 -3.42984,-1.22382 -4.41435,-3.66667 z"
       id="path3229"
       inkscape:connector-curvature="0" />
  </g>
</svg>
